<svg xmlns="http://www.w3.org/2000/svg" width="18" height="18" fill="none" xmlns:v="https://vecta.io/nano"><g fill="#fbfbfb"><use href="#B"/><path d="M3.786 12.96H1.357C.608 12.96 0 13.513 0 14.195v2.21c0 .682.608 1.235 1.357 1.235h2.429c.749 0 1.357-.553 1.357-1.235v-2.21c0-.682-.608-1.235-1.357-1.235zm-.271-6.445H1.26C.564 6.515 0 7.068 0 7.75v2.21c0 .682.564 1.235 1.26 1.235h2.255c.696 0 1.26-.553 1.26-1.235V7.75c0-.682-.564-1.235-1.26-1.235zm6.478 6.41H7.738c-.696 0-1.26.553-1.26 1.235v2.21c0 .682.564 1.235 1.26 1.235h2.255c.696 0 1.26-.553 1.26-1.235v-2.21c0-.682-.564-1.235-1.26-1.235zM3.515.049H1.26C.564.049 0 .601 0 1.283v2.21c0 .682.564 1.235 1.26 1.235h2.255c.696 0 1.26-.553 1.26-1.235v-2.21c0-.682-.564-1.235-1.26-1.235zm6.653 6.531H7.912c-.696 0-1.26.553-1.26 1.235v2.21c0 .682.564 1.235 1.26 1.235h2.255c.696 0 1.26-.553 1.26-1.235v-2.21c0-.682-.564-1.235-1.26-1.235zm6.332 6.345h-2.255c-.696 0-1.26.553-1.26 1.235v2.21c0 .682.564 1.235 1.26 1.235H16.5c.696 0 1.26-.553 1.26-1.235v-2.21c0-.682-.564-1.235-1.26-1.235zM9.895.126H7.639c-.696 0-1.26.553-1.26 1.235v2.21c0 .682.564 1.235 1.26 1.235h2.255c.696 0 1.26-.553 1.26-1.235v-2.21c0-.682-.564-1.235-1.26-1.235z"/><use href="#B" x="-0.022" y="6.531"/></g><defs ><path id="B" d="M16.359.177h-2.255c-.696 0-1.26.553-1.26 1.235v2.21c0 .682.564 1.235 1.26 1.235h2.255c.696 0 1.26-.553 1.26-1.235v-2.21c0-.682-.564-1.235-1.26-1.235z"/></defs></svg>